<svg width="36" height="36" viewBox="0 0 36 36" fill="none" xmlns="http://www.w3.org/2000/svg">
<path d="M20.748 24.852C21.0578 24.9943 21.4068 25.0268 21.7375 24.9442C22.0683 24.8615 22.361 24.6687 22.5675 24.3975L23.1 23.7C23.3794 23.3274 23.7418 23.025 24.1584 22.8167C24.5749 22.6084 25.0343 22.5 25.5 22.5H30C30.7956 22.5 31.5587 22.8161 32.1213 23.3787C32.6839 23.9413 33 24.7044 33 25.5V30C33 30.7956 32.6839 31.5587 32.1213 32.1213C31.5587 32.6839 30.7956 33 30 33C22.8392 33 15.9716 30.1554 10.9081 25.0919C5.84464 20.0284 3 13.1608 3 6C3 5.20435 3.31607 4.44129 3.87868 3.87868C4.44129 3.31607 5.20435 3 6 3H10.5C11.2956 3 12.0587 3.31607 12.6213 3.87868C13.1839 4.44129 13.5 5.20435 13.5 6V10.5C13.5 10.9657 13.3916 11.4251 13.1833 11.8416C12.975 12.2582 12.6726 12.6206 12.3 12.9L11.598 13.4265C11.3226 13.6368 11.1285 13.9359 11.0487 14.273C10.9688 14.6102 11.0082 14.9646 11.16 15.276C13.21 19.4398 16.5816 22.8072 20.748 24.852Z" stroke="#D4AF37" stroke-width="2" stroke-linecap="round" stroke-linejoin="round"/>
</svg>
